#!OML:ASF F:\VICON\USERDATA\INSTALL\rory3\rory3.ASF
:FULLY-SPECIFIED
:DEGREES
2860
root -2.23806 18.615 2.64397 1.87834 -15.22 -0.767547
lowerback 6.1952 1.51468 0.193583
upperback 1.48062 1.9673 -2.3853
thorax -1.85509 0.976547 -2.71549
lowerneck -11.5156 -10.3954 -9.7065
upperneck 3.99511 -13.9725 16.437
head 4.9869 -6.30533 5.42586
rclavicle -1.2424e-014 -3.18055e-015
rhumerus 53.5337 53.7993 9.21787
rradius 83.1443
rwrist 52.1192
rhand -55.6994 387.451
rfingers 7.12502
rthumb -28.0489 -0.472368
lclavicle -1.2424e-014 -3.18055e-015
lhumerus -24.8254 -6.49505 74.2166
lradius 32.8196
lwrist -16.9238
lhand -27.3298 19.5443
lfingers 7.12502
lthumb -0.738611 49.5228
rfemur -11.8686 23.3197 11.4817
rtibia 23.5842
rfoot -13.155 -17.8287
rtoes -10.6558
lfemur 1.29932 -9.31934 -10.9812
ltibia 14.475
lfoot -17.4791 25.1528
ltoes -10.9421
2861
root -2.25782 18.6098 2.64222 1.9613 -15.31 -0.814839
lowerback 6.24132 1.47761 0.148512
upperback 1.42997 1.91418 -2.35938
thorax -1.9379 0.9492 -2.66197
lowerneck -11.3602 -10.3902 -9.72799
upperneck 3.75716 -13.9458 16.4743
head 4.89008 -6.30698 5.45364
rclavicle 1.2424e-014 8.74653e-015
rhumerus 53.2661 53.7004 8.99051
rradius 83.4501
rwrist 51.6701
rhand -56.1308 388.272
rfingers 7.12502
rthumb -28.4613 0.417329
lclavicle 1.2424e-014 8.74653e-015
lhumerus -24.8938 -6.44839 74.1614
lradius 32.1586
lwrist -16.8526
lhand -27.0924 19.9215
lfingers 7.12502
lthumb -0.509299 49.9006
rfemur -12.1645 23.3159 11.5569
rtibia 23.8881
rfoot -13.1811 -17.7521
rtoes -10.7783
lfemur 1.16575 -9.23413 -10.8497
ltibia 14.6525
lfoot -17.6609 25.0943
ltoes -10.6134
2862
root -2.28165 18.6029 2.6434 1.9545 -15.4449 -0.739097
lowerback 6.25487 1.48221 -0.00544344
upperback 1.44129 1.90938 -2.38934
thorax -1.93807 0.947322 -2.60622
lowerneck -11.313 -10.4185 -9.67763
upperneck 3.60374 -13.9706 16.4345
head 4.83191 -6.328 5.43416
rclavicle -1.71949e-014 2.38542e-015
rhumerus 52.6581 53.3955 8.39116
rradius 83.7369
rwrist 51.2107
rhand -56.2754 387.559
rfingers 7.12502
rthumb -28.5994 -0.273413
lclavicle -1.71949e-014 2.38542e-015
lhumerus -24.9953 -6.3993 74.0954
lradius 31.5846
lwrist -16.5617
lhand -27.0981 19.8554
lfingers 7.12502
lthumb -0.514801 49.8346
rfemur -12.3984 23.2359 11.5361
rtibia 24.2416
rfoot -13.2746 -17.5445
rtoes -10.8778
lfemur 1.15091 -9.10593 -10.8678
ltibia 14.7825
lfoot -17.6438 25.1297
ltoes -10.9476
2863
root -2.30831 18.5967 2.64751 1.93277 -15.5087 -0.660422
lowerback 6.2417 1.42769 -0.177364
upperback 1.49286 1.82676 -2.38445
thorax -1.8869 0.907215 -2.49676
lowerneck -11.3211 -10.419 -9.67027
upperneck 3.43584 -13.9413 16.3612
head 4.77151 -6.3226 5.41567
rclavicle -4.23411e-014 1.90833e-014
rhumerus 52.0776 52.8178 7.77208
rradius 84.0871
rwrist 50.8539
rhand -56.3442 385.882
rfingers 7.12502
rthumb -28.6652 -1.93845
lclavicle -4.23411e-014 1.90833e-014
lhumerus -25.1088 -6.07926 73.9565
lradius 31.1195
lwrist -16.6524
lhand -27.3543 19.6905
lfingers 7.12502
lthumb -0.76232 49.6689
rfemur -12.575 23.0995 11.5375
rtibia 24.6349
rfoot -13.5269 -17.3231
rtoes -10.4922
lfemur 1.17136 -9.2306 -10.9127
ltibia 14.9135
lfoot -17.7909 25.2561
ltoes -11.067
2864
root -2.33413 18.5907 2.64877 1.95147 -15.5402 -0.666634
lowerback 6.29814 1.33253 -0.252025
upperback 1.50461 1.69496 -2.36085
thorax -1.91463 0.841523 -2.42184
lowerneck -11.3864 -10.3929 -9.66792
upperneck 3.30423 -13.8817 16.3381
head 4.73253 -6.29616 5.41446
rclavicle 2.18663e-015 1.03368e-014
rhumerus 51.486 52.1003 7.13646
rradius 84.5089
rwrist 50.3659
rhand -56.7017 385.964
rfingers 7.12502
rthumb -29.0066 -1.79855
lclavicle 2.18663e-015 1.03368e-014
lhumerus -25.27 -5.62243 73.744
lradius 30.6667
lwrist -16.8758
lhand -27.4042 19.4824
lfingers 7.12502
lthumb -0.810508 49.4606
rfemur -12.8006 22.9999 11.6218
rtibia 25.0454
rfoot -13.756 -17.1367
rtoes -10.2444
lfemur 1.13072 -9.4029 -10.8605
ltibia 15.0677
lfoot -17.9374 25.4101
ltoes -11.1194
2865
root -2.36277 18.5833 2.64967 1.9595 -15.5797 -0.631727
lowerback 6.42222 1.27453 -0.370537
upperback 1.44983 1.60639 -2.36647
thorax -2.04684 0.796743 -2.35874
lowerneck -11.4191 -10.4172 -9.64281
upperneck 3.29379 -13.9093 16.2827
head 4.73169 -6.31069 5.38868
rclavicle -1.78906e-015 1.90833e-014
rhumerus 50.6861 51.378 6.34548
rradius 84.9601
rwrist 49.8737
rhand -56.8712 386.95
rfingers 7.12502
rthumb -29.1685 -0.784273
lclavicle -1.78906e-015 1.90833e-014
lhumerus -25.5758 -5.29715 73.5511
lradius 30.2937
lwrist -16.8898
lhand -27.3187 19.191
lfingers 7.12502
lthumb -0.727912 49.1695
rfemur -13.0606 22.9679 11.6744
rtibia 25.4811
rfoot -13.8715 -17.0443
rtoes -10.531
lfemur 1.0684 -9.34923 -10.807
ltibia 15.2266
lfoot -17.9258 25.4397
ltoes -11.4027
2866
root -2.3938 18.5736 2.65802 1.91974 -15.6235 -0.665346
lowerback 6.49452 1.20557 -0.371964
upperback 1.43325 1.51285 -2.36382
thorax -2.10785 0.749668 -2.35002
lowerneck -11.2824 -10.4112 -9.70867
upperneck 3.12727 -13.8842 16.3248
head 4.66368 -6.30999 5.4231
rclavicle -3.37934e-014 1.11319e-014
rhumerus 49.885 50.5524 5.51493
rradius 85.4076
rwrist 49.3535
rhand -56.9683 386.677
rfingers 7.12502
rthumb -29.2613 -1.04153
lclavicle -3.37934e-014 1.11319e-014
lhumerus -25.8479 -4.90902 73.3397
lradius 29.8435
lwrist -16.9438
lhand -27.2319 19.3213
lfingers 7.12502
lthumb -0.644045 49.3001
rfemur -13.1875 22.9589 11.8247
rtibia 25.932
rfoot -14.1329 -16.8547
rtoes -10.196
lfemur 1.09968 -9.16629 -10.6662
ltibia 15.3686
lfoot -17.8905 25.323
ltoes -11.6709
2867
root -2.4271 18.5631 2.66849 1.9031 -15.6921 -0.738536
lowerback 6.45182 1.10588 -0.33933
upperback 1.4368 1.3835 -2.35378
thorax -2.08472 0.685172 -2.34641
lowerneck -11.1943 -10.3455 -9.68941
upperneck 3.02725 -13.7895 16.3132
head 4.6043 -6.27196 5.43334
rclavicle -3.33958e-014 -1.66979e-014
rhumerus 49.308 49.5184 4.75487
rradius 85.7986
rwrist 48.7004
rhand -57.1333 385.924
rfingers 7.12502
rthumb -29.4188 -1.76722
lclavicle -3.33958e-014 -1.66979e-014
lhumerus -26.0777 -4.57063 73.085
lradius 29.251
lwrist -16.9183
lhand -27.1271 19.3701
lfingers 7.12502
lthumb -0.54284 49.3492
rfemur -13.3093 22.9006 12.0153
rtibia 26.3764
rfoot -14.4436 -16.5387
rtoes -9.57651
lfemur 1.11383 -9.0261 -10.4877
ltibia 15.4934
lfoot -17.8466 25.3131
ltoes -12.1773
2868
root -2.46331 18.5535 2.67599 1.89528 -15.6818 -0.706085
lowerback 6.3484 0.985917 -0.414007
upperback 1.44328 1.22088 -2.35696
thorax -2.02804 0.604722 -2.29218
lowerneck -10.8294 -10.2641 -9.74512
upperneck 2.65419 -13.6577 16.4076
head 4.42649 -6.2347 5.50801
rclavicle 2.08724e-014 -2.06736e-014
rhumerus 49.0456 48.3183 4.32371
rradius 86.1994
rwrist 47.8369
rhand -57.2596 385.296
rfingers 7.12502
rthumb -29.5394 -2.37338
lclavicle 2.08724e-014 -2.06736e-014
lhumerus -26.2778 -4.16378 72.8158
lradius 28.6475
lwrist -16.9203
lhand -26.8189 19.4492
lfingers 7.12502
lthumb -0.245141 49.4288
rfemur -13.4877 22.7763 12.1006
rtibia 26.7972
rfoot -14.6315 -16.3771
rtoes -9.54792
lfemur 1.08568 -8.94208 -10.4044
ltibia 15.5666
lfoot -17.7675 25.3393
ltoes -12.4827
2869
root -2.49868 18.5443 2.68368 1.7922 -15.6251 -0.519073
lowerback 6.32613 0.856778 -0.576584
upperback 1.46092 1.03713 -2.43276
thorax -2.00565 0.513742 -2.26385
lowerneck -10.0111 -10.1211 -9.91315
upperneck 1.76176 -13.4172 16.7672
head 4.03464 -6.17459 5.72163
rclavicle 1.2921e-015 -1.43125e-014
rhumerus 48.6824 47.0712 3.8176
rradius 86.5944
rwrist 47.4127
rhand -57.5676 383.94
rfingers 7.12502
rthumb -29.8333 -3.67744
lclavicle 1.2921e-015 -1.43125e-014
lhumerus -26.5459 -3.78554 72.5036
lradius 28.1573
lwrist -16.9676
lhand -26.572 19.6599
lfingers 7.12502
lthumb -0.00669123 49.6396
rfemur -13.596 22.6409 12.0532
rtibia 27.1994
rfoot -14.7859 -16.3376
rtoes -9.81689
lfemur 1.14254 -8.92284 -10.4937
ltibia 15.615
lfoot -17.8429 25.2694
ltoes -12.3183
2870
root -2.53456 18.5353 2.68984 1.69856 -15.5472 -0.331845
lowerback 6.34737 0.70634 -0.736334
upperback 1.4495 0.823784 -2.50443
thorax -2.03787 0.407691 -2.23172
lowerneck -9.33395 -10.047 -10.0579
upperneck 1.05144 -13.2763 17.0047
head 3.72247 -6.15512 5.87378
rclavicle -2.38542e-015 1.27222e-014
rhumerus 48.2607 45.7493 3.26975
rradius 87.0249
rwrist 47.2863
rhand -57.4322 381.637
rfingers 7.12502
rthumb -29.704 -6.00388
lclavicle -2.38542e-015 1.27222e-014
lhumerus -26.8163 -3.20878 72.1496
lradius 27.5598
lwrist -17.1921
lhand -26.6399 19.4964
lfingers 7.12502
lthumb -0.0722508 49.4761
rfemur -13.6668 22.4817 12.0063
rtibia 27.544
rfoot -14.9485 -16.2437
rtoes -9.70132
lfemur 1.15787 -8.98908 -10.5892
ltibia 15.7383
lfoot -18.0341 25.1893
ltoes -11.7529
2871
root -2.57383 18.5262 2.6991 1.61692 -15.5318 -0.258512
lowerback 6.3679 0.581631 -0.782666
upperback 1.40733 0.652076 -2.54935
thorax -2.09847 0.321875 -2.23916
lowerneck -9.01347 -10.0195 -10.1433
upperneck 0.843349 -13.2301 17.0547
head 3.6115 -6.15383 5.92506
rclavicle -4.6615e-014 -1.66979e-014
rhumerus 47.6245 44.3472 2.43609
rradius 87.3663
rwrist 47.2172
rhand -56.8784 377.133
rfingers 7.12502
rthumb -29.1754 -10.6005
lclavicle -4.6615e-014 -1.66979e-014
lhumerus -27.182 -2.58224 71.7746
lradius 27.034
lwrist -17.4216
lhand -26.5812 19.4637
lfingers 7.12502
lthumb -0.0156272 49.4434
rfemur -13.6632 22.3493 12.098
rtibia 27.8292
rfoot -15.1447 -16.088
rtoes -9.71513
lfemur 1.18773 -8.89734 -10.5661
ltibia 15.935
lfoot -18.0613 25.0991
ltoes -11.7418
